<svg width="310px" height="310px" viewBox="-9.01 0 310 310" xmlns="http://www.w3.org/2000/svg">
  <g id="mug" transform="translate(-2986.278 -1813.416)">
    <path id="Path_12" data-name="Path 12" d="M3217.628,1832.416h-20.656l.379-6.54a11.717,11.717,0,0,0-3.285-8.838,11.95,11.95,0,0,0-8.81-3.622H2998.393a11.855,11.855,0,0,0-12.095,12.571l15.255,264.677a33.08,33.08,0,0,0,32.912,32.752h114.68a33.227,33.227,0,0,0,32.951-32.9l7.892-137.1h27.64a60.5,60.5,0,1,0,0-121Zm-45.2,5-3.142,54H3014.369l-3.143-54Zm-14.554,252.935a8.982,8.982,0,0,1-8.724,9.065h-114.68a8.963,8.963,0,0,1-8.684-9.065c0-.232-.008-.4-.021-.627l-10-173.308h152.118l-10,173.307C3157.875,2089.955,3157.869,2090.119,3157.869,2090.351Zm59.759-160.935h-26.243l4.191-73h22.052a36.5,36.5,0,0,1,0,73Z" fill="#453c5c"/>
  </g>
</svg>
