<svg width="304px" height="304px" viewBox="0 -11.5 304 304" xmlns="http://www.w3.org/2000/svg">
  <g id="print" transform="translate(-2352.982 -3695.416)">
    <g id="Group_7" data-name="Group 7">
      <path id="Path_30" data-name="Path 30" d="M2627.583,3695.416H2381.624c-15.961,0-28.642,13.339-28.642,29.326v148.037c0,16.282,12.681,29.637,28.642,29.637h20.358V3964.7a11.579,11.579,0,0,0,11.875,11.717h181.118a11.689,11.689,0,0,0,12.007-11.717v-62.283h20.6a29.041,29.041,0,0,0,20.833-8.924,29.752,29.752,0,0,0,8.566-20.713V3724.742A29.6,29.6,0,0,0,2627.583,3695.416Zm-44.6,257h-157v-146h157Zm50-79.637c0,2.723-2.856,5.637-5.4,5.637h-20.6v-84.537c0-6.691-5.316-12.463-12.007-12.463H2413.857c-6.69,0-11.875,5.772-11.875,12.463v84.537h-20.358c-2.513,0-4.642-2.814-4.642-5.637V3724.742c0-2.671,2-4.326,4.642-4.326h245.959c2.682,0,5.4,1.744,5.4,4.326Z" fill="#453c5c"/>
      <path id="Path_31" data-name="Path 31" d="M2452.625,3735.416h-38.768c-6.69,0-12.114,5.808-12.114,12.5s5.424,12.5,12.114,12.5h38.768c6.691,0,12.115-5.809,12.115-12.5S2459.316,3735.416,2452.625,3735.416Z" fill="#453c5c"/>
    </g>
  </g>
</svg>
