<?xml version="1.0" encoding="iso-8859-1"?>
<!-- Generator: Adobe Illustrator 19.0.0, SVG Export Plug-In . SVG Version: 6.00 Build 0)  -->
<svg version="1.1" id="Layer_1" xmlns="http://www.w3.org/2000/svg" xmlns:xlink="http://www.w3.org/1999/xlink" x="0px" y="0px"
	 viewBox="0 0 512 512" style="enable-background:new 0 0 512 512;" xml:space="preserve">
<polygon style="fill:#71DFFE;" points="30.903,0 30.903,132.667 30.903,461.465 59.208,461.465 59.208,512 452.788,512 
	452.788,461.465 481.093,461.465 481.093,132.667 481.093,0 "/>
<polygon style="fill:#9BE7FE;" points="255.998,512 255.998,0 30.903,0 30.903,132.667 30.903,461.465 59.208,461.465 59.208,512 
	"/>
<rect x="30.903" style="fill:#F7EE00;" width="450.194" height="132.671"/>
<rect x="30.903" style="fill:#FFFC99;" width="225.092" height="132.671"/>
<rect x="88.031" y="176.17" style="fill:#19CCFE;" width="335.935" height="31.347"/>
<g>
	<rect x="338.722" y="43.05" style="fill:#088690;" width="31.347" height="46.577"/>
	<rect x="392.618" y="43.05" style="fill:#088690;" width="31.347" height="46.577"/>
	<rect x="88.031" y="43.05" style="fill:#088690;" width="31.347" height="46.577"/>
	<rect x="141.926" y="43.05" style="fill:#088690;" width="31.347" height="46.577"/>
	<circle style="fill:#088690;" cx="222.969" cy="66.33" r="22.249"/>
	<circle style="fill:#088690;" cx="289.027" cy="66.33" r="22.249"/>
</g>
<rect x="59.208" y="461.469" style="fill:#19CCFE;" width="393.582" height="50.531"/>
<rect x="59.208" y="461.469" style="fill:#71DFFE;" width="196.786" height="50.531"/>
<g>
</g>
<g>
</g>
<g>
</g>
<g>
</g>
<g>
</g>
<g>
</g>
<g>
</g>
<g>
</g>
<g>
</g>
<g>
</g>
<g>
</g>
<g>
</g>
<g>
</g>
<g>
</g>
<g>
</g>
</svg>
