<?xml version="1.0" encoding="iso-8859-1"?>
<!-- Generator: Adobe Illustrator 19.0.0, SVG Export Plug-In . SVG Version: 6.00 Build 0)  -->
<svg version="1.1" id="Layer_1" xmlns="http://www.w3.org/2000/svg" xmlns:xlink="http://www.w3.org/1999/xlink" x="0px" y="0px"
	 viewBox="0 0 512 512" style="enable-background:new 0 0 512 512;" xml:space="preserve">
<path style="fill:#2C6991;" d="M255.403,220.142c-9.301,0-16.842-7.541-16.842-16.842v-23.874c0-36.932,30.047-66.98,66.98-66.98
	h125.345c11.118,0,20.163-9.045,20.163-20.163c0-11.119-9.045-20.164-20.163-20.164H401.67c-9.301,0-16.842-7.541-16.842-16.842
	s7.541-16.842,16.842-16.842h29.215c29.692,0,53.848,24.156,53.848,53.849c0,29.692-24.156,53.848-53.848,53.848H305.54
	c-18.359,0-33.296,14.937-33.296,33.296V203.3C272.245,212.601,264.704,220.142,255.403,220.142z"/>
<path style="fill:#ABA8AB;" d="M286.316,225.713h-61.754c-9.301,0-16.842-7.541-16.842-16.842s7.541-16.842,16.842-16.842h61.754
	c9.301,0,16.842,7.541,16.842,16.842S295.617,225.713,286.316,225.713z"/>
<path style="fill:#CCCCCC;" d="M256,225.713h-31.439c-9.301,0-16.842-7.541-16.842-16.842s7.541-16.842,16.842-16.842H256V225.713z"
	/>
<path style="fill:#4AD0FF;" d="M398.056,214.485H113.944C51.01,214.485,0,265.882,0,328.814v28.86
	c0,46.498,21.996,88.13,56.182,106.207c28.626,15.137,61.712,12.217,93.835-7.993h211.828c18.55,12.351,37.452,17.679,55.628,17.679
	c13.345,0,26.206-3.136,38.34-9.546C490.002,445.958,512,404.281,512,357.775v-28.961C512,265.882,460.99,214.485,398.056,214.485z"
	/>
<path style="fill:#99E5FF;" d="M256,214.485H113.944C51.01,214.485,0,265.882,0,328.814v28.86c0,46.498,21.996,88.13,56.182,106.207
	c28.626,15.137,61.712,12.217,93.835-7.993H256V214.485z"/>
<path style="fill:#2C6991;" d="M151.579,317.784h-14.596v-14.596c0-9.301-7.541-16.842-16.842-16.842s-16.842,7.541-16.842,16.842
	v14.596H88.702c-9.301,0-16.842,7.541-16.842,16.842s7.541,16.842,16.842,16.842h14.596v14.596c0,9.301,7.541,16.842,16.842,16.842
	s16.842-7.541,16.842-16.842v-14.596h14.596c9.301,0,16.842-7.541,16.842-16.842S160.88,317.784,151.579,317.784z"/>
<path style="fill:#528FB3;" d="M120.14,286.345c-9.301,0-16.842,7.541-16.842,16.842v14.596H88.702
	c-9.301,0-16.842,7.541-16.842,16.842s7.541,16.842,16.842,16.842h14.596v14.596c0,9.301,7.541,16.842,16.842,16.842V286.345z"/>
<path style="fill:#ABA8AB;" d="M228.491,390.766h-24.702c-9.301,0-16.842-7.541-16.842-16.842s7.541-16.842,16.842-16.842h24.702
	c9.301,0,16.842,7.541,16.842,16.842S237.793,390.766,228.491,390.766z"/>
<path style="fill:#CCCCCC;" d="M215.579,390.766h-11.789c-9.301,0-16.842-7.541-16.842-16.842s7.541-16.842,16.842-16.842h11.789
	V390.766z"/>
<circle style="fill:#FB5858;" cx="393.016" cy="365.676" r="19.491"/>
<path style="fill:#FF835D;" d="M393.013,385.162c-10.764,0-19.491-8.726-19.491-19.491c0-10.764,8.726-19.491,19.491-19.491V385.162
	z"/>
<path style="fill:#ABA8AB;" d="M308.211,390.766h-24.702c-9.301,0-16.842-7.541-16.842-16.842s7.541-16.842,16.842-16.842h24.702
	c9.301,0,16.842,7.541,16.842,16.842S317.512,390.766,308.211,390.766z"/>
<path style="fill:#CCCCCC;" d="M295.298,390.766h-11.789c-9.301,0-16.842-7.541-16.842-16.842s7.541-16.842,16.842-16.842h11.789
	V390.766z"/>
<circle style="fill:#FB5858;" cx="426.7" cy="320.752" r="19.491"/>
<path style="fill:#FF835D;" d="M426.699,340.246c-10.764,0-19.491-8.726-19.491-19.491c0-10.764,8.726-19.491,19.491-19.491V340.246
	z"/>
<g>
</g>
<g>
</g>
<g>
</g>
<g>
</g>
<g>
</g>
<g>
</g>
<g>
</g>
<g>
</g>
<g>
</g>
<g>
</g>
<g>
</g>
<g>
</g>
<g>
</g>
<g>
</g>
<g>
</g>
</svg>
