<?xml version="1.0" encoding="iso-8859-1"?>
<!-- Generator: Adobe Illustrator 19.0.0, SVG Export Plug-In . SVG Version: 6.00 Build 0)  -->
<svg version="1.1" id="Layer_1" xmlns="http://www.w3.org/2000/svg" xmlns:xlink="http://www.w3.org/1999/xlink" x="0px" y="0px"
	 viewBox="0 0 512 512" style="enable-background:new 0 0 512 512;" xml:space="preserve">
<g>
	<g>
		<path d="M256,0C147.883,0,59.915,87.963,59.915,196.085c0,105.298,180.362,303.963,188.043,312.367
			c2.064,2.261,4.979,3.548,8.042,3.548c3.064,0,5.979-1.287,8.043-3.548c7.681-8.404,188.042-207.069,188.042-312.367
			C452.085,87.963,364.117,0,256,0z M256,484.729c-35.277-40.101-174.298-203.58-174.298-288.643
			c0-96.107,78.192-174.298,174.298-174.298c96.107,0,174.298,78.191,174.298,174.298C430.298,281.122,291.266,444.633,256,484.729z
			"/>
	</g>
</g>
<g>
	<g>
		<path d="M256,87.149c-66.074,0-119.83,53.755-119.83,119.83c0,66.074,53.755,119.83,119.83,119.83
			c66.075,0,119.83-53.755,119.83-119.83C375.83,140.904,322.075,87.149,256,87.149z M256,305.021
			c-54.064,0-98.043-43.984-98.043-98.043c0-54.059,43.979-98.043,98.043-98.043c54.064,0,98.043,43.984,98.043,98.043
			C354.043,261.037,310.064,305.021,256,305.021z"/>
	</g>
</g>
<g>
</g>
<g>
</g>
<g>
</g>
<g>
</g>
<g>
</g>
<g>
</g>
<g>
</g>
<g>
</g>
<g>
</g>
<g>
</g>
<g>
</g>
<g>
</g>
<g>
</g>
<g>
</g>
<g>
</g>
</svg>
