<svg width="18" height="13" viewBox="0 0 18 13" fill="none" xmlns="http://www.w3.org/2000/svg">
<path d="M4.09119 5.18437C3.81811 5.18437 3.58797 4.93492 3.71333 4.69231C3.71643 4.68632 3.71957 4.68034 3.72274 4.67438C3.73132 4.65827 3.73905 4.64172 3.74582 4.62477C3.84835 4.36801 4.00294 4.1435 4.1567 3.91737C4.2895 3.66466 4.52371 3.49359 4.696 3.27735C4.87636 3.0672 5.12224 2.92739 5.31696 2.75284C5.50809 2.57047 5.75845 2.47929 5.95766 2.35077C6.16585 2.23527 6.34711 2.10761 6.54093 2.04683C6.72758 1.97214 6.8909 1.90788 7.0246 1.85404C7.26819 1.75647 7.40086 1.49316 7.33516 1.23911L7.15246 0.532595C7.07582 0.236222 6.77703 0.0550424 6.47902 0.12505C6.30763 0.166733 6.09855 0.215364 5.86075 0.273547C5.61757 0.316967 5.35824 0.435938 5.06929 0.544489C4.78394 0.667802 4.45372 0.751169 4.14682 0.949165C3.83814 1.13848 3.48189 1.29653 3.16782 1.5501C2.86362 1.81149 2.49661 2.03814 2.22561 2.37074C1.92949 2.68163 1.63696 3.00815 1.40993 3.37983C1.14701 3.73413 0.968437 4.12318 0.779995 4.50788C0.6095 4.89258 0.472206 5.28597 0.360038 5.66807C0.147368 6.434 0.0522498 7.16172 0.0154588 7.78437C-0.0150509 8.40788 0.00289595 8.92632 0.0405843 9.30147C0.0540445 9.47862 0.0791702 9.65057 0.097117 9.76954C0.108028 9.83724 0.114808 9.88273 0.117784 9.90315C0.118749 9.90977 0.125142 9.91418 0.131674 9.91272C0.13786 9.91134 0.143997 9.91527 0.145385 9.92146C0.540099 11.6804 2.15526 13 4.09119 13C6.32109 13 8.12923 11.2502 8.12923 9.09218C8.12923 6.9342 6.32109 5.18437 4.09119 5.18437ZM13.962 5.18437C13.6889 5.18437 13.4587 4.93492 13.5841 4.69231C13.5872 4.68632 13.5903 4.68034 13.5935 4.67438C13.6021 4.65827 13.6098 4.64172 13.6166 4.62477C13.7191 4.36801 13.8737 4.1435 14.0275 3.91737C14.1603 3.66466 14.3945 3.49359 14.5668 3.27735C14.7471 3.0672 14.993 2.92739 15.1877 2.75284C15.3789 2.57047 15.6292 2.47929 15.8284 2.35077C16.0366 2.23527 16.2179 2.10761 16.4117 2.04683C16.5984 1.97214 16.7617 1.90788 16.8954 1.85404C17.139 1.75647 17.2716 1.49316 17.2059 1.23911L17.0232 0.532595C16.9466 0.236222 16.6478 0.0550424 16.3498 0.12505C16.1784 0.166733 15.9693 0.215364 15.7315 0.273547C15.4883 0.316967 15.229 0.435938 14.9401 0.544489C14.6556 0.668671 14.3245 0.751169 14.0176 0.950033C13.7089 1.13935 13.3527 1.29739 13.0386 1.55097C12.7344 1.81236 12.3674 2.03901 12.0964 2.37074C11.8003 2.68163 11.5077 3.00815 11.2807 3.37983C11.0178 3.73413 10.8392 4.12318 10.6508 4.50788C10.4803 4.89258 10.343 5.28597 10.2308 5.66807C10.0181 6.434 9.92302 7.16172 9.88623 7.78437C9.85572 8.40788 9.87367 8.92632 9.91135 9.30147C9.92481 9.47862 9.94994 9.65057 9.96789 9.76954C9.9788 9.83724 9.98558 9.88273 9.98855 9.90315C9.98952 9.90977 9.99591 9.91418 10.0024 9.91272C10.0086 9.91134 10.0148 9.91527 10.0162 9.92146C10.4109 11.6804 12.026 13 13.962 13C16.1919 13 18 11.2502 18 9.09218C18 6.9342 16.1919 5.18437 13.962 5.18437Z" fill="#3E3E3E"/>
</svg>
