<?xml version="1.0" encoding="iso-8859-1"?>
<!-- Generator: Adobe Illustrator 19.0.0, SVG Export Plug-In . SVG Version: 6.00 Build 0)  -->
<svg version="1.1" id="Layer_1" xmlns="http://www.w3.org/2000/svg" xmlns:xlink="http://www.w3.org/1999/xlink" x="0px" y="0px"
	 viewBox="0 0 485 485" style="enable-background:new 0 0 485 485;" xml:space="preserve">
<g>
	<g>
		<rect x="97.5" y="87.5" style="fill:#31C0D8;" width="290" height="310"/>
		<path style="fill:#AFB6BB;" d="M387.5,397.5v60c0,11-9,20-20,20h-250c-11,0-20-9-20-20v-60H387.5z"/>
		<path style="fill:#AFB6BB;" d="M387.5,27.5v60h-290v-60c0-11,9-20,20-20h250C378.5,7.5,387.5,16.5,387.5,27.5z"/>
	</g>
	<g>
		<path style="fill:#231F20;" d="M367.5,0h-250C102.336,0,90,12.336,90,27.5v430c0,15.164,12.336,27.5,27.5,27.5h250
			c15.164,0,27.5-12.336,27.5-27.5v-430C395,12.336,382.664,0,367.5,0z M117.5,15h250c6.893,0,12.5,5.607,12.5,12.5V80H105V27.5
			C105,20.607,110.607,15,117.5,15z M380,95v295H105V95H380z M367.5,470h-250c-6.893,0-12.5-5.607-12.5-12.5V405h275v52.5
			C380,464.393,374.393,470,367.5,470z"/>
		<rect x="197" y="40.75" style="fill:#231F20;" width="90" height="15"/>
		<rect x="222.5" y="430" style="fill:#231F20;" width="40" height="15"/>
	</g>
</g>
<g>
</g>
<g>
</g>
<g>
</g>
<g>
</g>
<g>
</g>
<g>
</g>
<g>
</g>
<g>
</g>
<g>
</g>
<g>
</g>
<g>
</g>
<g>
</g>
<g>
</g>
<g>
</g>
<g>
</g>
</svg>
