<?xml version="1.0" encoding="iso-8859-1"?>
<!-- Generator: Adobe Illustrator 19.0.0, SVG Export Plug-In . SVG Version: 6.00 Build 0)  -->
<svg version="1.1" id="Layer_1" xmlns="http://www.w3.org/2000/svg" xmlns:xlink="http://www.w3.org/1999/xlink" x="0px" y="0px"
	 viewBox="0 0 512 512" style="enable-background:new 0 0 512 512;" xml:space="preserve">
<g>
	<path style="fill:#57565C;" d="M205.915,0H72.349c-4.397,0-8.697,1.781-11.806,4.891c-3.11,3.109-4.891,7.41-4.891,11.806v66.783
		c0,4.395,1.781,8.695,4.891,11.804c3.109,3.11,7.41,4.891,11.806,4.891h133.565c4.395,0,8.695-1.781,11.804-4.891
		c3.11-3.109,4.891-7.408,4.891-11.804V16.697c0-4.397-1.781-8.697-4.891-11.806C214.61,1.781,210.31,0,205.915,0z"/>
	<path style="fill:#57565C;" d="M451.458,4.891C448.349,1.781,444.049,0,439.654,0H306.089c-4.397,0-8.697,1.781-11.806,4.891
		c-3.11,3.109-4.891,7.41-4.891,11.806v66.783c0,4.395,1.781,8.695,4.891,11.804c3.109,3.11,7.41,4.891,11.806,4.891h133.565
		c4.395,0,8.695-1.781,11.804-4.891c3.11-3.109,4.891-7.408,4.891-11.804V16.697C456.348,12.3,454.567,7.999,451.458,4.891z"/>
</g>
<g>
	<path style="fill:#3E3D42;" d="M222.609,83.479V16.697c0-4.397-1.781-8.697-4.891-11.806C214.61,1.781,210.31,0,205.915,0h-66.784
		v100.174h66.784c4.395,0,8.695-1.781,11.804-4.891C220.828,92.174,222.609,87.875,222.609,83.479z"/>
	<path style="fill:#3E3D42;" d="M456.348,83.479V16.697c0-4.397-1.781-8.697-4.891-11.806C448.349,1.781,444.049,0,439.654,0H372.87
		v100.174h66.784c4.395,0,8.695-1.781,11.804-4.891C454.567,92.174,456.348,87.875,456.348,83.479z"/>
</g>
<path style="fill:#E3EDED;" d="M507.112,71.673c-3.109-3.109-7.411-4.891-11.806-4.891H16.697c-4.397,0-8.697,1.781-11.806,4.891
	c-3.11,3.109-4.891,7.41-4.891,11.806v411.826c0,4.395,1.782,8.697,4.891,11.806C8,510.22,12.301,512,16.697,512h478.609
	c4.395,0,8.696-1.78,11.804-4.89c3.11-3.109,4.89-7.408,4.89-11.804V83.48C512.001,79.083,510.221,74.782,507.112,71.673z"/>
<path style="fill:#C6DCE5;" d="M495.306,66.783H256.001V512h239.305c4.395,0,8.696-1.78,11.804-4.89
	c3.11-3.109,4.89-7.408,4.89-11.804V83.48c0-4.397-1.78-8.697-4.888-11.806C504.003,68.565,499.701,66.783,495.306,66.783z"/>
<path style="fill:#7DB7D6;" d="M440.329,205.239c-3.109-3.109-7.411-4.891-11.806-4.891H83.48c-4.397,0-8.697,1.781-11.806,4.891
	c-3.11,3.109-4.891,7.41-4.891,11.806v211.478c0,4.395,1.782,8.697,4.891,11.806s7.41,4.888,11.806,4.888h345.043
	c4.395,0,8.696-1.78,11.804-4.89c3.11-3.109,4.89-7.408,4.89-11.804V217.046C445.218,212.648,443.438,208.347,440.329,205.239z"/>
<path style="fill:#5CB1D4;" d="M428.523,200.348H256.001v244.87h172.523c4.395,0,8.696-1.78,11.804-4.89
	c3.11-3.109,4.89-7.408,4.89-11.804V217.046c0-4.397-1.78-8.697-4.888-11.806C437.221,202.13,432.919,200.348,428.523,200.348z"/>
<g>
	<circle style="fill:#57565C;" cx="116.87" cy="150.261" r="16.696"/>
	<circle style="fill:#57565C;" cx="384.001" cy="150.261" r="16.696"/>
	<path style="fill:#57565C;" d="M205.914,166.957h100.175c9.22,0,16.696-7.475,16.696-16.696c0-9.222-7.475-16.696-16.696-16.696
		H205.915c-9.222,0-16.696,7.474-16.696,16.696c0,9.22,7.474,16.696,16.696,16.696"/>
</g>
<g>
	<path style="fill:#E3EDED;" d="M144.696,300.522h222.61c9.22,0,16.696-7.475,16.696-16.696c0-9.222-7.475-16.696-16.696-16.696
		H144.697c-9.222,0-16.696,7.474-16.696,16.696c0,9.22,7.474,16.696,16.696,16.696"/>
	<path style="fill:#E3EDED;" d="M367.306,267.13H256.001v33.391h111.305c9.22,0,16.696-7.475,16.696-16.696
		C384.002,274.604,376.526,267.13,367.306,267.13z"/>
</g>
<g>
</g>
<g>
</g>
<g>
</g>
<g>
</g>
<g>
</g>
<g>
</g>
<g>
</g>
<g>
</g>
<g>
</g>
<g>
</g>
<g>
</g>
<g>
</g>
<g>
</g>
<g>
</g>
<g>
</g>
</svg>
