<?xml version="1.0" encoding="iso-8859-1"?>
<!-- Generator: Adobe Illustrator 19.0.0, SVG Export Plug-In . SVG Version: 6.00 Build 0)  -->
<svg version="1.1" id="Layer_1" xmlns="http://www.w3.org/2000/svg" xmlns:xlink="http://www.w3.org/1999/xlink" x="0px" y="0px"
	 viewBox="0 0 496.8 496.8" style="enable-background:new 0 0 496.8 496.8;" xml:space="preserve">
<path style="fill:#80AFBA;" d="M448.4,480.8c0,8.8-7.2,16-16,16h-368c-8.8,0-16-7.2-16-16v-464c0-8.8,7.2-16,16-16h360
	c8.8,0,16,7.2,16,16L448.4,480.8z"/>
<path style="fill:#6FA4AD;" d="M426.8,0c8.8,0,21.6,7.2,21.6,16v465.6c0,8.8-3.2,15.2-12,15.2h-368c-8.8,0-16.8-7.2-16.8-16"/>
<path style="fill:#578D93;" d="M448.4,304l-96.8-91.2L152.4,412l85.6,84.8h198.4c8.8,0,12-6.4,12-15.2V304z"/>
<circle style="fill:#C4E3E8;" cx="248.4" cy="305.6" r="146.4"/>
<circle style="fill:#A3CAD3;" cx="248.4" cy="305.6" r="125.6"/>
<circle style="fill:#4FC7D3;" cx="248.4" cy="305.6" r="114.4"/>
<path style="fill:#59DCE2;" d="M134,305.6c0-63.2,51.2-114.4,114.4-114.4"/>
<path style="fill:#48ACBC;" d="M329.2,224.8c44.8,44.8,44.8,116.8,0,161.6s-116.8,44.8-161.6,0"/>
<path style="fill:#C4E3E8;" d="M374,368.8c-35.2,0-64-28.8-64-64s28.8-64,64-64"/>
<path style="fill:#6FA4AD;" d="M428.4,16.8h-360c-8.8,0-20,8-20,16.8v95.2h392V33.6C440.4,24.8,437.2,16.8,428.4,16.8z"/>
<path style="fill:#A3CAD3;" d="M428.4,0.8h-360c-8.8,0-20,6.4-20,15.2v88.8h392V16C440.4,7.2,437.2,0.8,428.4,0.8z"/>
<path style="fill:#BFE3E8;" d="M448.4,16c0-8.8-12.8-16-21.6-16L64.4,0.8c-8.8,0-16,7.2-16,16"/>
<path style="fill:#80AFBA;" d="M426.8,0l-82.4,104.8h104V16C448.4,7.2,435.6,0,426.8,0z"/>
<path style="opacity:0.2;fill:#72A2A5;enable-background:new    ;" d="M192.4,84.8c0,2.4-1.6,4-4,4h-104c-2.4,0-4-1.6-4-4v-40
	c0-2.4,1.6-4,4-4h104c2.4,0,4,1.6,4,4V84.8z"/>
<path style="fill:#86AD99;" d="M192.4,76.8c0,2.4-1.6,4-4,4h-104c-2.4,0-4-1.6-4-4v-40c0-2.4,1.6-4,4-4h104c2.4,0,4,1.6,4,4V76.8z"
	/>
<path style="fill:#658E78;" d="M188.4,32.8c2.4,0,4,1.6,4,4v40c0,2.4-1.6,4-4,4h-104c-2.4,0-4-1.6-4-4"/>
<path style="fill:#137D8E;" d="M422.8,56c0,17.6-14.4,32-32,32s-32-14.4-32-32s14.4-33.6,32-33.6C408.4,21.6,422.8,38.4,422.8,56z"
	/>
<path style="fill:#72A2A5;" d="M422.8,56c0,17.6-14.4,46.4-32,46.4s-32-28.8-32-46.4s14.4-29.6,32-29.6
	C408.4,25.6,422.8,38.4,422.8,56z"/>
<circle style="fill:#185B6B;" cx="390.8" cy="56" r="32"/>
<path style="fill:#073B44;" d="M413.2,33.6c12,12,12,32.8,0,44.8s-32.8,12-44.8,0"/>
<path style="fill:#B8D7E0;" d="M409.2,40c0,1.6-0.8,2.4-2.4,2.4s-2.4-0.8-2.4-2.4c0-1.6,0.8-2.4,2.4-2.4S409.2,39.2,409.2,40z"/>
<g>
	<circle style="fill:#A3CAD3;" cx="353.2" cy="278.4" r="5.6"/>
	<circle style="fill:#A3CAD3;" cx="353.2" cy="304" r="5.6"/>
	<circle style="fill:#A3CAD3;" cx="353.2" cy="329.6" r="5.6"/>
</g>
<g>
	<circle style="fill:#185B6B;" cx="228.4" cy="54.4" r="13.6"/>
	<circle style="fill:#185B6B;" cx="273.2" cy="54.4" r="13.6"/>
	<circle style="fill:#185B6B;" cx="318" cy="54.4" r="13.6"/>
</g>
<g>
	<path style="fill:#80AFBA;" d="M129.2,437.6c0,1.6-1.6,3.2-3.2,3.2H84.4c-1.6,0-3.2-1.6-3.2-3.2l0,0c0-1.6,1.6-3.2,3.2-3.2H126
		C128.4,434.4,129.2,436,129.2,437.6L129.2,437.6z"/>
	<path style="fill:#80AFBA;" d="M129.2,456c0,1.6-1.6,3.2-3.2,3.2H84.4c-1.6,0-3.2-1.6-3.2-3.2l0,0c0-1.6,1.6-3.2,3.2-3.2H126
		C128.4,452.8,129.2,454.4,129.2,456L129.2,456z"/>
	<path style="fill:#80AFBA;" d="M129.2,474.4c0,1.6-1.6,3.2-3.2,3.2H84.4c-1.6,0-3.2-1.6-3.2-3.2l0,0c0-1.6,1.6-3.2,3.2-3.2H126
		C128.4,472,129.2,472.8,129.2,474.4L129.2,474.4z"/>
</g>
<g>
</g>
<g>
</g>
<g>
</g>
<g>
</g>
<g>
</g>
<g>
</g>
<g>
</g>
<g>
</g>
<g>
</g>
<g>
</g>
<g>
</g>
<g>
</g>
<g>
</g>
<g>
</g>
<g>
</g>
</svg>
