<?xml version="1.0" encoding="iso-8859-1"?>
<!-- Generator: Adobe Illustrator 19.0.0, SVG Export Plug-In . SVG Version: 6.00 Build 0)  -->
<svg version="1.1" id="Layer_1" xmlns="http://www.w3.org/2000/svg" xmlns:xlink="http://www.w3.org/1999/xlink" x="0px" y="0px"
	 viewBox="0 0 502 502" style="enable-background:new 0 0 502 502;" xml:space="preserve">
<g>
	<rect x="122" y="10" style="fill:#D1E2EB;" width="258" height="482"/>
	<rect x="156" y="45" style="fill:#4EC9DC;" width="190" height="54"/>
	<rect x="156" y="135" style="fill:#4EC9DC;" width="190" height="54"/>
	<rect x="122" y="231" style="fill:#4EC9DC;" width="258" height="162"/>
	<g>
		<rect x="172.5" y="430" style="fill:#4EC9DC;" width="50" height="24"/>
		<rect x="279.5" y="430" style="fill:#4EC9DC;" width="50" height="24"/>
	</g>
	<g>
		<circle style="fill:#D1E2EB;" cx="291.5" cy="294.5" r="22.5"/>
		<circle style="fill:#D1E2EB;" cx="208.5" cy="294.5" r="13.5"/>
	</g>
	<g>
		<path d="M390,10c0-5.523-4.478-10-10-10H122c-5.522,0-10,4.477-10,10v482c0,5.523,4.478,10,10,10h258c5.522,0,10-4.477,10-10V10z
			 M370,20v201H132V20H370z M370,383H132V241h238V383z M132,482v-79h238v79H132z"/>
		<path d="M156,109h190c5.522,0,10-4.477,10-10V45c0-5.523-4.478-10-10-10H156c-5.522,0-10,4.477-10,10v54
			C146,104.523,150.478,109,156,109z M166,55h170v34H166V55z"/>
		<path d="M156,199h190c5.522,0,10-4.477,10-10v-54c0-5.523-4.478-10-10-10H156c-5.522,0-10,4.477-10,10v54
			C146,194.523,150.478,199,156,199z M166,145h170v34H166V145z"/>
		<path d="M222.5,420h-50c-5.522,0-10,4.477-10,10v24c0,5.523,4.478,10,10,10h50c5.522,0,10-4.477,10-10v-24
			C232.5,424.477,228.022,420,222.5,420z M212.5,444h-30v-4h30V444z"/>
		<path d="M329.5,420h-50c-5.522,0-10,4.477-10,10v24c0,5.523,4.478,10,10,10h50c5.522,0,10-4.477,10-10v-24
			C339.5,424.477,335.022,420,329.5,420z M319.5,444h-30v-4h30V444z"/>
		<path d="M291.5,327c17.921,0,32.5-14.58,32.5-32.5S309.421,262,291.5,262S259,276.58,259,294.5S273.579,327,291.5,327z M291.5,282
			c6.893,0,12.5,5.607,12.5,12.5s-5.607,12.5-12.5,12.5s-12.5-5.607-12.5-12.5S284.607,282,291.5,282z"/>
		<path d="M208.5,318c12.958,0,23.5-10.542,23.5-23.5S221.458,271,208.5,271S185,281.542,185,294.5S195.542,318,208.5,318z
			 M208.5,291c1.93,0,3.5,1.57,3.5,3.5s-1.57,3.5-3.5,3.5s-3.5-1.57-3.5-3.5S206.57,291,208.5,291z"/>
		<path d="M319,152h-23c-5.522,0-10,4.477-10,10s4.478,10,10,10h23c5.522,0,10-4.477,10-10S324.522,152,319,152z"/>
		<path d="M319,62h-23c-5.522,0-10,4.477-10,10s4.478,10,10,10h23c5.522,0,10-4.477,10-10S324.522,62,319,62z"/>
		<path d="M158,372h75c5.522,0,10-4.477,10-10s-4.478-10-10-10h-75c-5.522,0-10,4.477-10,10S152.478,372,158,372z"/>
		<path d="M286,352h-15c-5.522,0-10,4.477-10,10s4.478,10,10,10h15c5.522,0,10-4.477,10-10S291.522,352,286,352z"/>
	</g>
</g>
<g>
</g>
<g>
</g>
<g>
</g>
<g>
</g>
<g>
</g>
<g>
</g>
<g>
</g>
<g>
</g>
<g>
</g>
<g>
</g>
<g>
</g>
<g>
</g>
<g>
</g>
<g>
</g>
<g>
</g>
</svg>
