<?xml version="1.0" encoding="iso-8859-1"?>
<!-- Generator: Adobe Illustrator 19.0.0, SVG Export Plug-In . SVG Version: 6.00 Build 0)  -->
<svg version="1.1" id="Layer_1" xmlns="http://www.w3.org/2000/svg" xmlns:xlink="http://www.w3.org/1999/xlink" x="0px" y="0px"
	 viewBox="0 0 485 485" style="enable-background:new 0 0 485 485;" xml:space="preserve">
<g>
	<g>
		<path style="fill:#D2D6D8;" d="M477.5,367.5v50c0,5.5-4.5,10-10,10h-450c-5.5,0-10-4.5-10-10v-50h35h400H477.5z"/>
		<rect x="42.5" y="57.5" style="fill:#E7ECED;" width="400" height="310"/>
	</g>
	<g>
		<rect x="72.5" y="87.5" style="fill:#31C0D8;" width="340" height="240"/>
	</g>
	<g>
		<path style="fill:#231F20;" d="M450,360V50H35v310H0v57.5c0,9.649,7.851,17.5,17.5,17.5h450c9.649,0,17.5-7.851,17.5-17.5V360H450
			z M50,65h385v295H50V65z M470,417.5c0,1.355-1.145,2.5-2.5,2.5h-450c-1.355,0-2.5-1.145-2.5-2.5V375h455V417.5z"/>
		<path style="fill:#231F20;" d="M65,335h355V80H65V335z M80,95h325v225H80V95z"/>
		<rect x="197.5" y="390" style="fill:#231F20;" width="90" height="15"/>
	</g>
</g>
<g>
</g>
<g>
</g>
<g>
</g>
<g>
</g>
<g>
</g>
<g>
</g>
<g>
</g>
<g>
</g>
<g>
</g>
<g>
</g>
<g>
</g>
<g>
</g>
<g>
</g>
<g>
</g>
<g>
</g>
</svg>
