<svg width="21" height="22" viewBox="0 0 21 22" fill="none" xmlns="http://www.w3.org/2000/svg">
<path d="M14.8126 4.27083C15.3209 4.27083 15.8084 4.0689 16.1679 3.70945C16.5273 3.35001 16.7292 2.8625 16.7292 2.35417C16.7292 1.84583 16.5273 1.35832 16.1679 0.998879C15.8084 0.639434 15.3209 0.4375 14.8126 0.4375C14.3043 0.4375 13.8167 0.639434 13.4573 0.998879C13.0978 1.35832 12.8959 1.84583 12.8959 2.35417C12.8959 2.8625 13.0978 3.35001 13.4573 3.70945C13.8167 4.0689 14.3043 4.27083 14.8126 4.27083ZM11.3626 17.5917L12.3209 13.375L14.3334 15.2917V21.0417H16.2501V13.8542L14.2376 11.9375L14.8126 9.0625C15.4692 9.81501 16.2793 10.4182 17.1884 10.8314C18.0976 11.2447 19.0847 11.4585 20.0834 11.4583V9.54167C18.3967 9.57042 16.8251 8.68875 15.9626 7.24167L15.0042 5.70833C14.6592 5.13333 14.0459 4.75 13.3751 4.75C13.0876 4.75 12.8959 4.84583 12.6084 4.84583L7.62508 6.95417V11.4583H9.54175V8.2L11.2667 7.52917L9.73341 15.2917L5.03758 14.3333L4.65425 16.25L11.3626 17.5917ZM2.83341 7.625C2.57925 7.625 2.33549 7.52403 2.15577 7.34431C1.97605 7.16459 1.87508 6.92083 1.87508 6.66667C1.87508 6.4125 1.97605 6.16875 2.15577 5.98902C2.33549 5.8093 2.57925 5.70833 2.83341 5.70833H5.70842V7.625H2.83341ZM3.79175 3.79167C3.53758 3.79167 3.29383 3.6907 3.1141 3.51098C2.93438 3.33125 2.83341 3.0875 2.83341 2.83333C2.83341 2.57917 2.93438 2.33541 3.1141 2.15569C3.29383 1.97597 3.53758 1.875 3.79175 1.875H8.58342V3.79167H3.79175ZM1.87508 11.4583C1.62092 11.4583 1.37716 11.3574 1.19744 11.1776C1.01771 10.9979 0.916748 10.7542 0.916748 10.5C0.916748 10.2458 1.01771 10.0021 1.19744 9.82236C1.37716 9.64263 1.62092 9.54167 1.87508 9.54167H5.70842V11.4583H1.87508Z" fill="#3E3E3E"/>
</svg>
