<svg width="25" height="25" viewBox="0 0 25 25" fill="none" xmlns="http://www.w3.org/2000/svg">
<path d="M18.2085 25C18.2147 25 18.2372 25 18.2435 25C18.9035 25 19.5273 24.74 19.9998 24.2675L23.3899 20.8773C23.8787 20.3885 23.8787 19.5985 23.3899 19.1097L18.3897 14.1095C17.901 13.6207 17.1109 13.6207 16.6222 14.1095L14.6296 16.1021C13.7058 15.827 11.982 15.202 10.8894 14.1095C9.7969 13.0169 9.17188 11.2931 8.89687 10.3693L10.8894 8.37667C11.3782 7.88789 11.3782 7.09785 10.8894 6.60908L5.88925 1.60883C5.42048 1.14006 4.59045 1.14006 4.12168 1.60883L0.732799 4.999C0.257781 5.47402 -0.0097297 6.12656 0.000270692 6.79284C0.0290218 8.57293 0.50029 14.7557 5.37298 19.6285C10.2457 24.5012 16.4284 24.9712 18.2085 25ZM5.00672 4.26021L8.23934 7.49287L6.62303 9.10921C6.32427 9.40672 6.19676 9.83674 6.28427 10.2493C6.31427 10.393 7.04805 13.8019 9.12313 15.877C11.1982 17.9521 14.6071 18.6859 14.7508 18.7159C15.1671 18.8034 15.5934 18.6759 15.8909 18.3772L17.5072 16.7608L20.7398 19.9935L18.2322 22.4999C16.6722 22.4736 11.3345 22.0549 7.14055 17.8596C2.93289 13.6519 2.52537 8.29541 2.50037 6.76659L5.00672 4.26021ZM22.4999 11.2493H25C25 4.83649 20.1586 0 13.7371 0V2.50012C18.8148 2.50012 22.4999 6.17906 22.4999 11.2493Z" fill="white"/>
</svg>
