<svg width="25" height="25" viewBox="0 0 25 25" fill="none" xmlns="http://www.w3.org/2000/svg">
<path fill-rule="evenodd" clip-rule="evenodd" d="M21.2561 3.63353C18.917 1.29168 15.8065 0.00138 12.4931 0C5.66488 0 0.10626 5.55724 0.1035 12.3882C0.1035 14.5714 0.673438 16.7021 1.75673 18.5816L0 25L6.5674 23.2764C8.37795 24.2631 10.4148 24.7833 12.4876 24.7847H12.4931C19.3199 24.7847 24.8786 19.2275 24.8813 12.3965C24.8813 9.08727 23.5952 5.97538 21.2561 3.63353ZM12.4931 22.694H12.489C10.6411 22.6926 8.82921 22.1972 7.24774 21.2575L6.87238 21.0339L2.97527 22.0565L4.01441 18.2573L3.77015 17.8682C2.73929 16.2287 2.19557 14.334 2.19557 12.3882C2.19833 6.71092 6.81718 2.09207 12.4972 2.09207C15.2476 2.09345 17.8323 3.16571 19.7767 5.1115C21.7198 7.05868 22.7906 9.64479 22.7892 12.3965C22.7865 18.0738 18.1676 22.694 12.4931 22.694ZM18.1414 14.9812C17.8309 14.8253 16.3102 14.0773 16.0259 13.9738C15.743 13.8703 15.5374 13.8193 15.3304 14.1284C15.1234 14.4375 14.53 15.1344 14.3492 15.3414C14.1684 15.5484 13.9876 15.5733 13.6785 15.4187C13.3694 15.2641 12.3717 14.9371 11.189 13.8828C10.2685 13.0617 9.64755 12.0487 9.46677 11.7382C9.28599 11.4277 9.44745 11.2608 9.60339 11.1062C9.74277 10.9682 9.91251 10.7446 10.0671 10.5639C10.2216 10.3831 10.2727 10.2547 10.3762 10.0477C10.4797 9.84075 10.4286 9.65997 10.35 9.50541C10.2727 9.34947 9.65307 7.82595 9.39501 7.20634C9.14523 6.60604 8.88993 6.68608 8.69949 6.6778C8.52009 6.66952 8.31309 6.66676 8.10747 6.66676C7.90048 6.66676 7.56514 6.74404 7.28086 7.05316C6.99658 7.36366 6.19756 8.11161 6.19756 9.63513C6.19756 11.1586 7.30708 12.6311 7.46164 12.8381C7.6162 13.0451 9.64479 16.1708 12.7498 17.5121C13.4895 17.8309 14.0663 18.0214 14.5148 18.1649C15.2559 18.4009 15.9307 18.3664 16.4647 18.2877C17.0595 18.1994 18.296 17.5397 18.554 16.8166C18.8121 16.0935 18.8121 15.4739 18.7348 15.3442C18.6575 15.2145 18.4492 15.1358 18.1414 14.9812Z" fill="white"/>
</svg>
