<?xml version="1.0" encoding="iso-8859-1"?>
<!-- Generator: Adobe Illustrator 19.0.0, SVG Export Plug-In . SVG Version: 6.00 Build 0)  -->
<svg version="1.1" id="Layer_1" xmlns="http://www.w3.org/2000/svg" xmlns:xlink="http://www.w3.org/1999/xlink" x="0px" y="0px"
	 viewBox="0 0 201.527 201.527" style="enable-background:new 0 0 201.527 201.527;" xml:space="preserve">
<g>
	<g>
		<g>
			<path d="M201.496,138.264c-0.036-0.291-3.713-29.019-3.713-43.168c0-12.768,3.671-38.751,3.709-39.013
				c0.151-1.064-0.198-2.138-0.947-2.908c-0.749-0.77-1.8-1.152-2.879-1.033c-0.646,0.071-65.035,7.205-96.903,7.205
				c-31.865,0-96.257-7.134-96.903-7.205c-1.077-0.124-2.124,0.26-2.869,1.023c-0.748,0.763-1.103,1.831-0.96,2.891
				c0.038,0.277,3.712,27.892,3.712,41.486c0,13.327-3.673,40.423-3.71,40.694c-0.127,0.928,0.125,1.868,0.702,2.606
				c0.575,0.738,1.425,1.213,2.355,1.317c0.651,0.073,65.423,7.249,97.673,7.249s97.022-7.176,97.673-7.249
				c0.926-0.102,1.771-0.573,2.346-1.306C201.359,140.12,201.615,139.187,201.496,138.264z M100.763,142.459
				c-27.554,0-79.433-5.334-93.381-6.824c1.013-7.921,3.31-27.101,3.31-38.093c0-10.848-2.156-29.532-3.212-38.02
				c15.176,1.612,65.929,6.774,93.283,6.774c27.335,0,78.034-5.156,93.249-6.771c-1.069,8.129-3.178,25.454-3.178,35.571
				c0,11.73,2.338,32.301,3.334,40.536C180.256,137.118,128.338,142.459,100.763,142.459z"/>
			<path d="M100.763,86.865c3.832,0,6.949,3.117,6.949,6.949c0,1.919,1.556,3.475,3.475,3.475s3.475-1.556,3.475-3.475
				c0-6.457-4.446-11.85-10.424-13.405v-3.968c0-1.919-1.556-3.475-3.475-3.475s-3.475,1.556-3.475,3.475v3.968
				c-5.977,1.554-10.424,6.948-10.424,13.405c0,7.664,6.235,13.898,13.898,13.898c3.832,0,6.949,3.117,6.949,6.949
				c0,3.832-3.117,6.949-6.949,6.949c-3.832,0-6.949-3.117-6.949-6.949c0-1.919-1.556-3.475-3.475-3.475s-3.475,1.556-3.475,3.475
				c0,6.457,4.446,11.85,10.424,13.405v3.968c0,1.919,1.556,3.475,3.475,3.475s3.475-1.556,3.475-3.475v-3.968
				c5.977-1.554,10.424-6.948,10.424-13.405c0-7.664-6.235-13.898-13.898-13.898c-3.832,0-6.949-3.117-6.949-6.949
				C93.814,89.982,96.931,86.865,100.763,86.865z"/>
			<rect x="163.305" y="66.018" width="24.322" height="6.949"/>
			<rect x="13.899" y="66.018" width="24.322" height="6.949"/>
			<rect x="163.305" y="125.086" width="24.322" height="6.949"/>
			<rect x="13.899" y="125.086" width="24.322" height="6.949"/>
		</g>
	</g>
</g>
<g>
</g>
<g>
</g>
<g>
</g>
<g>
</g>
<g>
</g>
<g>
</g>
<g>
</g>
<g>
</g>
<g>
</g>
<g>
</g>
<g>
</g>
<g>
</g>
<g>
</g>
<g>
</g>
<g>
</g>
</svg>
