<?xml version="1.0" encoding="iso-8859-1"?>
<!-- Generator: Adobe Illustrator 19.0.0, SVG Export Plug-In . SVG Version: 6.00 Build 0)  -->
<svg version="1.1" id="Layer_1" xmlns="http://www.w3.org/2000/svg" xmlns:xlink="http://www.w3.org/1999/xlink" x="0px" y="0px"
	 viewBox="0 0 512 512" style="enable-background:new 0 0 512 512;" xml:space="preserve">
<g>
	<rect x="10.199" y="62.215" style="fill:#EDB2D8;" width="491.602" height="319.704"/>
	<polygon style="fill:#EDB2D8;" points="407.968,381.922 412.048,415.519 99.952,415.519 104.032,381.922 68.335,381.922 
		57.116,449.785 454.884,449.785 443.665,381.922 	"/>
</g>
<rect x="40.797" y="92.405" style="fill:#74C1F2;" width="430.406" height="259.335"/>
<path d="M501.801,52.016H10.199C4.566,52.016,0,56.582,0,62.215v319.706c0,5.633,4.566,10.199,10.199,10.199h46.112l-9.258,56.001
	c-0.489,2.955,0.347,5.977,2.285,8.261c1.938,2.285,4.782,3.601,7.778,3.601h397.769c2.997,0,5.84-1.318,7.778-3.601
	c1.938-2.284,2.773-5.306,2.285-8.261l-9.258-56.001h46.112c5.632,0,10.199-4.566,10.199-10.199V62.215
	C512,56.582,507.433,52.016,501.801,52.016z M442.861,439.586H69.139l7.846-47.465h15.533l-2.693,22.168
	c-0.352,2.898,0.555,5.807,2.491,7.993c1.936,2.185,4.715,3.436,7.634,3.436h312.096c2.919,0,5.698-1.251,7.634-3.436
	c1.935-2.186,2.842-5.096,2.49-7.993l-2.692-22.168h15.532L442.861,439.586z M398.933,392.121l1.602,13.198h-289.07l1.603-13.198
	H398.933z M20.398,371.722V72.414h471.203v299.308H20.398z"/>
<path d="M40.797,361.935h430.406c5.632,0,10.199-4.566,10.199-10.199V92.402c0-5.633-4.567-10.199-10.199-10.199H40.797
	c-5.633,0-10.199,4.566-10.199,10.199v259.334C30.598,357.369,35.164,361.935,40.797,361.935z M50.996,102.601h410.008v238.936
	H50.996V102.601z"/>
<path d="M318.215,310.665h-5.1c-5.632,0-10.199,4.566-10.199,10.199s4.567,10.199,10.199,10.199h5.1
	c5.632,0,10.199-4.566,10.199-10.199S323.847,310.665,318.215,310.665z"/>
<path d="M437.546,310.665h-82.614c-5.632,0-10.199,4.566-10.199,10.199s4.567,10.199,10.199,10.199h82.614
	c5.632,0,10.199-4.566,10.199-10.199S443.178,310.665,437.546,310.665z"/>
<g>
</g>
<g>
</g>
<g>
</g>
<g>
</g>
<g>
</g>
<g>
</g>
<g>
</g>
<g>
</g>
<g>
</g>
<g>
</g>
<g>
</g>
<g>
</g>
<g>
</g>
<g>
</g>
<g>
</g>
</svg>
